<?xml version="1.0" standalone="yes"?>

<svg version="1.1" viewBox="0.0 0.0 834.6325459317585 638.8083989501313" fill="none" stroke="none" stroke-linecap="square" stroke-miterlimit="10" xmlns="http://www.w3.org/2000/svg" xmlns:xlink="http://www.w3.org/1999/xlink"><clipPath id="p.0"><path d="m0 0l834.63257 0l0 638.8084l-834.63257 0l0 -638.8084z" clip-rule="nonzero"></path></clipPath><g clip-path="url(#p.0)"><path fill="#000000" fill-opacity="0.0" d="m0 0l834.63257 0l0 638.8084l-834.63257 0z" fill-rule="evenodd"></path><path fill="#fce5cd" fill-opacity="0.8692" d="m0 45.2242l0 0c0 -2.8000374 2.2698789 -5.069916 5.0699167 -5.069916l175.84442 0c1.3446198 0 2.6341705 0.534153 3.5849762 1.4849434c0.9507904 0.9507942 1.4849396 2.2403488 1.4849396 3.5849724l0 83.246c0 2.8000336 -2.2698822 5.069916 -5.069916 5.069916l-175.84442 0c-2.8000379 0 -5.0699167 -2.2698822 -5.0699167 -5.069916z" fill-rule="evenodd"></path><path stroke="#e69138" stroke-width="1.0" stroke-linejoin="round" stroke-linecap="butt" d="m0 45.2242l0 0c0 -2.8000374 2.2698789 -5.069916 5.0699167 -5.069916l175.84442 0c1.3446198 0 2.6341705 0.534153 3.5849762 1.4849434c0.9507904 0.9507942 1.4849396 2.2403488 1.4849396 3.5849724l0 83.246c0 2.8000336 -2.2698822 5.069916 -5.069916 5.069916l-175.84442 0c-2.8000379 0 -5.0699167 -2.2698822 -5.0699167 -5.069916z" fill-rule="evenodd"></path><path fill="#ffffff" d="m45.04642 70.60654l0 0c0 -4.4879456 3.6382027 -8.126144 8.126148 -8.126144l79.65322 0c2.155182 0 4.222107 0.85614777 5.746048 2.3800964c1.5239563 1.5239487 2.3800964 3.590866 2.3800964 5.746048l0 32.503616c0 4.4879456 -3.6381989 8.126144 -8.126144 8.126144l-79.65322 0c-4.4879456 0 -8.126148 -3.6381989 -8.126148 -8.126144z" fill-rule="evenodd"></path><path stroke="#e69138" stroke-width="1.0" stroke-linejoin="round" stroke-linecap="butt" d="m45.04642 70.60654l0 0c0 -4.4879456 3.6382027 -8.126144 8.126148 -8.126144l79.65322 0c2.155182 0 4.222107 0.85614777 5.746048 2.3800964c1.5239563 1.5239487 2.3800964 3.590866 2.3800964 5.746048l0 32.503616c0 4.4879456 -3.6381989 8.126144 -8.126144 8.126144l-79.65322 0c-4.4879456 0 -8.126148 -3.6381989 -8.126148 -8.126144z" fill-rule="evenodd"></path><path fill="#000000" fill-opacity="0.0" d="m0 0l185.98425 0l0 34.55118l-185.98425 0z" fill-rule="evenodd"></path><path fill="#f3f3f3" d="m22.186684 24.651875l1.875 -0.171875q0.140625 1.140625 0.625 1.859375q0.484375 0.71875 1.515625 1.171875q1.03125 0.4375 2.3125 0.4375q1.125 0 2.0 -0.328125q0.875 -0.34375 1.296875 -0.9375q0.4375 -0.59375 0.4375 -1.28125q0 -0.703125 -0.421875 -1.234375q-0.40625 -0.53125 -1.34375 -0.890625q-0.609375 -0.234375 -2.6875 -0.734375q-2.0625 -0.5 -2.890625 -0.9375q-1.078125 -0.5625 -1.609375 -1.390625q-0.53125 -0.84375 -0.53125 -1.875q0 -1.140625 0.640625 -2.125q0.65625 -1.0 1.890625 -1.5q1.25 -0.515625 2.765625 -0.515625q1.671875 0 2.9375 0.53125q1.28125 0.53125 1.96875 1.578125q0.6875 1.046875 0.734375 2.375l-1.90625 0.140625q-0.15625 -1.421875 -1.046875 -2.140625q-0.875 -0.734375 -2.609375 -0.734375q-1.796875 0 -2.625 0.65625q-0.828125 0.65625 -0.828125 1.59375q0 0.8125 0.578125 1.328125q0.578125 0.53125 3.0 1.078125q2.421875 0.546875 3.328125 0.953125q1.3125 0.609375 1.9375 1.546875q0.625 0.921875 0.625 2.125q0 1.203125 -0.6875 2.265625q-0.6875 1.0625 -1.96875 1.65625q-1.28125 0.578125 -2.890625 0.578125q-2.046875 0 -3.4375 -0.59375q-1.375 -0.59375 -2.15625 -1.78125q-0.78125 -1.203125 -0.828125 -2.703125zm14.678818 9.0l0 -15.0625l1.671875 0l0 1.421875q0.59375 -0.84375 1.34375 -1.25q0.75 -0.421875 1.8125 -0.421875q1.40625 0 2.46875 0.71875q1.0625 0.71875 1.609375 2.03125q0.546875 1.3125 0.546875 2.859375q0 1.671875 -0.609375 3.015625q-0.59375 1.34375 -1.734375 2.0625q-1.140625 0.703125 -2.40625 0.703125q-0.921875 0 -1.65625 -0.390625q-0.734375 -0.390625 -1.203125 -0.984375l0 5.296875l-1.84375 0zm1.671875 -9.5625q0 2.109375 0.84375 3.125q0.859375 1.0 2.0625 1.0q1.234375 0 2.109375 -1.046875q0.875 -1.046875 0.875 -3.21875q0 -2.09375 -0.859375 -3.125q-0.859375 -1.03125 -2.046875 -1.03125q-1.171875 0 -2.078125 1.109375q-0.90625 1.09375 -0.90625 3.1875zm10.189819 -7.515625l0 -2.125l1.84375 0l0 2.125l-1.84375 0zm0 12.90625l0 -10.890625l1.84375 0l0 10.890625l-1.84375 0zm4.738434 0l0 -10.890625l1.65625 0l0 1.546875q1.203125 -1.796875 3.46875 -1.796875q0.984375 0 1.796875 0.359375q0.828125 0.359375 1.234375 0.9375q0.421875 0.5625 0.578125 1.359375q0.109375 0.5 0.109375 1.78125l0 6.703125l-1.84375 0l0 -6.625q0 -1.125 -0.21875 -1.6875q-0.21875 -0.5625 -0.765625 -0.890625q-0.546875 -0.328125 -1.28125 -0.328125q-1.1875 0 -2.046875 0.75q-0.84375 0.734375 -0.84375 2.828125l0 5.953125l-1.84375 0zm18.924194 0l0 -1.375q-1.046875 1.625 -3.046875 1.625q-1.296875 0 -2.390625 -0.71875q-1.09375 -0.71875 -1.703125 -2.0q-0.59375 -1.296875 -0.59375 -2.96875q0 -1.625 0.546875 -2.953125q0.546875 -1.328125 1.625 -2.03125q1.09375 -0.71875 2.4375 -0.71875q0.984375 0 1.75 0.421875q0.765625 0.40625 1.25 1.078125l0 -5.390625l1.828125 0l0 15.03125l-1.703125 0zm-5.84375 -5.4375q0 2.09375 0.875 3.140625q0.890625 1.03125 2.09375 1.03125q1.203125 0 2.046875 -0.984375q0.859375 -1.0 0.859375 -3.03125q0 -2.234375 -0.875 -3.28125q-0.859375 -1.046875 -2.109375 -1.046875q-1.234375 0 -2.0625 1.015625q-0.828125 1.0 -0.828125 3.15625zm10.596069 5.4375l0 -15.03125l1.84375 0l0 15.03125l-1.84375 0zm12.238434 -3.5l1.90625 0.234375q-0.453125 1.671875 -1.671875 2.59375q-1.21875 0.921875 -3.125 0.921875q-2.390625 0 -3.796875 -1.46875q-1.390625 -1.484375 -1.390625 -4.140625q0 -2.734375 1.40625 -4.25q1.421875 -1.53125 3.6875 -1.53125q2.1875 0 3.5625 1.5q1.390625 1.484375 1.390625 4.171875q0 0.171875 -0.015625 0.5l-8.125 0q0.109375 1.796875 1.015625 2.75q0.921875 0.953125 2.28125 0.953125q1.015625 0 1.734375 -0.53125q0.71875 -0.546875 1.140625 -1.703125zm-6.0625 -2.984375l6.078125 0q-0.125 -1.375 -0.703125 -2.0625q-0.875 -1.078125 -2.28125 -1.078125q-1.265625 0 -2.140625 0.859375q-0.859375 0.84375 -0.953125 2.28125zm16.662338 6.484375l0 -15.03125l10.875 0l0 1.765625l-8.875 0l0 4.609375l8.3125 0l0 1.765625l-8.3125 0l0 5.109375l9.21875 0l0 1.78125l-11.21875 0zm13.960068 0l0 -10.890625l1.65625 0l0 1.546875q1.203125 -1.796875 3.46875 -1.796875q0.984375 0 1.796875 0.359375q0.828125 0.359375 1.234375 0.9375q0.421875 0.5625 0.578125 1.359375q0.109375 0.5 0.109375 1.78125l0 6.703125l-1.84375 0l0 -6.625q0 -1.125 -0.21875 -1.6875q-0.21875 -0.5625 -0.765625 -0.890625q-0.546875 -0.328125 -1.28125 -0.328125q-1.1875 0 -2.046875 0.75q-0.84375 0.734375 -0.84375 2.828125l0 5.953125l-1.84375 0zm11.517944 0.90625l1.796875 0.265625q0.109375 0.828125 0.625 1.203125q0.6875076 0.515625 1.8750076 0.515625q1.28125 0 1.96875 -0.515625q0.703125 -0.515625 0.953125 -1.4375q0.140625 -0.5625 0.125 -2.359375q-1.203125 1.421875 -3.0 1.421875q-2.2500076 0 -3.4843826 -1.609375q-1.234375 -1.625 -1.234375 -3.890625q0 -1.5625 0.5625 -2.875q0.578125 -1.328125 1.640625 -2.046875q1.0781326 -0.71875 2.5156326 -0.71875q1.9375 0 3.1875 1.5625l0 -1.3125l1.703125 0l0 9.40625q0 2.546875 -0.53125 3.609375q-0.515625 1.0625 -1.640625 1.671875q-1.109375 0.625 -2.75 0.625q-1.9531326 0 -3.1562576 -0.875q-1.203125 -0.875 -1.15625 -2.640625zm1.53125 -6.546875q0 2.140625 0.84375 3.125q0.8593826 0.984375 2.1406326 0.984375q1.265625 0 2.125 -0.96875q0.859375 -0.984375 0.859375 -3.078125q0 -2.0 -0.890625 -3.015625q-0.875 -1.015625 -2.125 -1.015625q-1.234375 0 -2.0937576 1.0q-0.859375 1.0 -0.859375 2.96875zm10.674202 -7.265625l0 -2.125l1.84375 0l0 2.125l-1.84375 0zm0 12.90625l0 -10.890625l1.84375 0l0 10.890625l-1.84375 0zm4.738434 0l0 -10.890625l1.65625 0l0 1.546875q1.203125 -1.796875 3.46875 -1.796875q0.984375 0 1.796875 0.359375q0.828125 0.359375 1.234375 0.9375q0.421875 0.5625 0.578125 1.359375q0.109375 0.5 0.109375 1.78125l0 6.703125l-1.84375 0l0 -6.625q0 -1.125 -0.21875 -1.6875q-0.21875 -0.5625 -0.765625 -0.890625q-0.546875 -0.328125 -1.28125 -0.328125q-1.1875 0 -2.046875 0.75q-0.84375 0.734375 -0.84375 2.828125l0 5.953125l-1.84375 0zm19.31482 -3.5l1.90625 0.234375q-0.453125 1.671875 -1.671875 2.59375q-1.21875 0.921875 -3.125 0.921875q-2.390625 0 -3.796875 -1.46875q-1.390625 -1.484375 -1.390625 -4.140625q0 -2.734375 1.40625 -4.25q1.421875 -1.53125 3.6875 -1.53125q2.1875 0 3.5625 1.5q1.390625 1.484375 1.390625 4.171875q0 0.171875 -0.015625 0.5l-8.125 0q0.109375 1.796875 1.015625 2.75q0.921875 0.953125 2.28125 0.953125q1.015625 0 1.734375 -0.53125q0.71875 -0.546875 1.140625 -1.703125zm-6.0625 -2.984375l6.078125 0q-0.125 -1.375 -0.703125 -2.0625q-0.875 -1.078125 -2.28125 -1.078125q-1.265625 0 -2.140625 0.859375q-0.859375 0.84375 -0.953125 2.28125z" fill-rule="nonzero"></path><path fill="#fce5cd" fill-opacity="0.8667" d="m0 182.04384l0 0c0 -2.771698 2.2469122 -5.0186157 5.018619 -5.0186157l310.59268 0c1.3310242 0 2.607544 0.52874756 3.548706 1.4699249c0.9411621 0.9411621 1.4699097 2.217682 1.4699097 3.5486908l0 82.4037c0 2.7717285 -2.2469177 5.0186157 -5.0186157 5.0186157l-310.59268 0l0 0c-2.7717068 0 -5.018619 -2.2468872 -5.018619 -5.0186157z" fill-rule="evenodd"></path><path stroke="#e69138" stroke-width="1.0" stroke-linejoin="round" stroke-linecap="butt" d="m0 182.04384l0 0c0 -2.771698 2.2469122 -5.0186157 5.018619 -5.0186157l310.59268 0c1.3310242 0 2.607544 0.52874756 3.548706 1.4699249c0.9411621 0.9411621 1.4699097 2.217682 1.4699097 3.5486908l0 82.4037c0 2.7717285 -2.2469177 5.0186157 -5.0186157 5.0186157l-310.59268 0l0 0c-2.7717068 0 -5.018619 -2.2468872 -5.018619 -5.0186157z" fill-rule="evenodd"></path><path fill="#000000" fill-opacity="0.0" d="m0 137.27504l320.6299 0l0 34.204727l-320.6299 0z" fill-rule="evenodd"></path><path fill="#efefef" d="m100.22581 166.75504l0 -15.03125l2.984375 0l3.5625 10.640625q0.5 1.484375 0.71875 2.234375q0.25 -0.828125 0.796875 -2.421875l3.609375 -10.453125l2.671875 0l0 15.03125l-1.921875 0l0 -12.578125l-4.359375 12.578125l-1.796875 0l-4.359375 -12.796875l0 12.796875l-1.90625 0zm24.68837 -1.34375q-1.015625 0.875 -1.96875 1.234375q-0.953125 0.359375 -2.03125 0.359375q-1.796875 0 -2.765625 -0.875q-0.953125 -0.875 -0.953125 -2.25q0 -0.796875 0.359375 -1.453125q0.359375 -0.671875 0.953125 -1.0625q0.59375 -0.40625 1.328125 -0.609375q0.546875 -0.140625 1.640625 -0.28125q2.234375 -0.265625 3.296875 -0.625q0 -0.390625 0 -0.484375q0 -1.125 -0.515625 -1.59375q-0.71875 -0.625 -2.109375 -0.625q-1.296875 0 -1.921875 0.453125q-0.625 0.453125 -0.921875 1.625l-1.796875 -0.25q0.25 -1.15625 0.8125 -1.859375q0.5625 -0.71875 1.625 -1.109375q1.0625 -0.390625 2.46875 -0.390625q1.40625 0 2.265625 0.328125q0.875 0.328125 1.28125 0.828125q0.421875 0.5 0.578125 1.265625q0.09375 0.46875 0.09375 1.6875l0 2.46875q0 2.578125 0.109375 3.265625q0.125 0.671875 0.46875 1.296875l-1.921875 0q-0.28125 -0.578125 -0.375 -1.34375zm-0.140625 -4.125q-1.015625 0.40625 -3.015625 0.703125q-1.140625 0.15625 -1.625 0.375q-0.46875 0.203125 -0.71875 0.59375q-0.25 0.390625 -0.25 0.875q0 0.734375 0.546875 1.234375q0.5625 0.484375 1.640625 0.484375q1.0625 0 1.890625 -0.46875q0.84375 -0.46875 1.234375 -1.265625q0.296875 -0.625 0.296875 -1.84375l0 -0.6875zm4.908577 -7.4375l0 -2.125l1.84375 0l0 2.125l-1.84375 0zm0 12.90625l0 -10.890625l1.84375 0l0 10.890625l-1.84375 0zm4.738434 0l0 -10.890625l1.65625 0l0 1.546875q1.203125 -1.796875 3.46875 -1.796875q0.984375 0 1.796875 0.359375q0.828125 0.359375 1.234375 0.9375q0.421875 0.5625 0.578125 1.359375q0.109375 0.5 0.109375 1.78125l0 6.703125l-1.84375 0l0 -6.625q0 -1.125 -0.21875 -1.6875q-0.21875 -0.5625 -0.765625 -0.890625q-0.546875 -0.328125 -1.28125 -0.328125q-1.1875 0 -2.046875 0.75q-0.84375 0.734375 -0.84375 2.828125l0 5.953125l-1.84375 0zm17.334198 -4.828125l1.875 -0.171875q0.140625 1.140625 0.625 1.859375q0.484375 0.71875 1.515625 1.171875q1.03125 0.4375 2.3125 0.4375q1.125 0 2.0 -0.328125q0.875 -0.34375 1.296875 -0.9375q0.4375 -0.59375 0.4375 -1.28125q0 -0.703125 -0.421875 -1.234375q-0.40625 -0.53125 -1.34375 -0.890625q-0.609375 -0.234375 -2.6875 -0.734375q-2.0625 -0.5 -2.890625 -0.9375q-1.078125 -0.5625 -1.609375 -1.390625q-0.53125 -0.84375 -0.53125 -1.875q0 -1.140625 0.640625 -2.125q0.65625 -1.0 1.890625 -1.5q1.25 -0.515625 2.765625 -0.515625q1.671875 0 2.9375 0.53125q1.28125 0.53125 1.96875 1.578125q0.6875 1.046875 0.734375 2.375l-1.90625 0.140625q-0.15625 -1.421875 -1.046875 -2.140625q-0.875 -0.734375 -2.609375 -0.734375q-1.796875 0 -2.625 0.65625q-0.828125 0.65625 -0.828125 1.59375q0 0.8125 0.578125 1.328125q0.578125 0.53125 3.0 1.078125q2.421875 0.546875 3.328125 0.953125q1.3125 0.609375 1.9375 1.546875q0.625 0.921875 0.625 2.125q0 1.203125 -0.6875 2.265625q-0.6875 1.0625 -1.96875 1.65625q-1.28125 0.578125 -2.890625 0.578125q-2.046875 0 -3.4375 -0.59375q-1.375 -0.59375 -2.15625 -1.78125q-0.78125 -1.203125 -0.828125 -2.703125zm14.678833 9.0l0 -15.0625l1.671875 0l0 1.421875q0.59375 -0.84375 1.34375 -1.25q0.75 -0.421875 1.8125 -0.421875q1.40625 0 2.46875 0.71875q1.0625 0.71875 1.609375 2.03125q0.546875 1.3125 0.546875 2.859375q0 1.671875 -0.609375 3.015625q-0.59375 1.34375 -1.734375 2.0625q-1.140625 0.703125 -2.40625 0.703125q-0.921875 0 -1.65625 -0.390625q-0.734375 -0.390625 -1.203125 -0.984375l0 5.296875l-1.84375 0zm1.671875 -9.5625q0 2.109375 0.84375 3.125q0.859375 1.0 2.0625 1.0q1.234375 0 2.109375 -1.046875q0.875 -1.046875 0.875 -3.21875q0 -2.09375 -0.859375 -3.125q-0.859375 -1.03125 -2.046875 -1.03125q-1.171875 0 -2.078125 1.109375q-0.90625 1.09375 -0.90625 3.1875zm10.189819 -7.515625l0 -2.125l1.84375 0l0 2.125l-1.84375 0zm0 12.90625l0 -10.890625l1.84375 0l0 10.890625l-1.84375 0zm4.738434 0l0 -10.890625l1.65625 0l0 1.546875q1.203125 -1.796875 3.46875 -1.796875q0.984375 0 1.796875 0.359375q0.828125 0.359375 1.234375 0.9375q0.421875 0.5625 0.578125 1.359375q0.109375 0.5 0.109375 1.78125l0 6.703125l-1.84375 0l0 -6.625q0 -1.125 -0.21875 -1.6875q-0.21875 -0.5625 -0.765625 -0.890625q-0.546875 -0.328125 -1.28125 -0.328125q-1.1875 0 -2.046875 0.75q-0.84375 0.734375 -0.84375 2.828125l0 5.953125l-1.84375 0zm18.924194 0l0 -1.375q-1.046875 1.625 -3.046875 1.625q-1.296875 0 -2.390625 -0.71875q-1.09375 -0.71875 -1.703125 -2.0q-0.59375 -1.296875 -0.59375 -2.96875q0 -1.625 0.546875 -2.953125q0.546875 -1.328125 1.625 -2.03125q1.09375 -0.71875 2.4375 -0.71875q0.984375 0 1.75 0.421875q0.765625 0.40625 1.25 1.078125l0 -5.390625l1.828125 0l0 15.03125l-1.703125 0zm-5.84375 -5.4375q0 2.09375 0.875 3.140625q0.890625 1.03125 2.09375 1.03125q1.203125 0 2.046875 -0.984375q0.859375 -1.0 0.859375 -3.03125q0 -2.234375 -0.875 -3.28125q-0.859375 -1.046875 -2.109375 -1.046875q-1.234375 0 -2.0625 1.015625q-0.828125 1.0 -0.828125 3.15625zm10.596069 5.4375l0 -15.03125l1.84375 0l0 15.03125l-1.84375 0zm12.238434 -3.5l1.90625 0.234375q-0.453125 1.671875 -1.671875 2.59375q-1.21875 0.921875 -3.125 0.921875q-2.390625 0 -3.796875 -1.46875q-1.390625 -1.484375 -1.390625 -4.140625q0 -2.734375 1.40625 -4.25q1.421875 -1.53125 3.6875 -1.53125q2.1875 0 3.5625 1.5q1.390625 1.484375 1.390625 4.171875q0 0.171875 -0.015625 0.5l-8.125 0q0.109375 1.796875 1.015625 2.75q0.921875 0.953125 2.28125 0.953125q1.015625 0 1.734375 -0.53125q0.71875 -0.546875 1.140625 -1.703125zm-6.0625 -2.984375l6.078125 0q-0.125 -1.375 -0.703125 -2.0625q-0.875 -1.078125 -2.28125 -1.078125q-1.265625 0 -2.140625 0.859375q-0.859375 0.84375 -0.953125 2.28125z" fill-rule="nonzero"></path><path fill="#fce5cd" fill-opacity="0.8667" d="m380.67365 80.41849l0 0c0 -5.992935 4.858246 -10.851166 10.851166 -10.851166l203.02213 0c2.8778687 0 5.6379395 1.1432495 7.6729126 3.178238c2.0349731 2.0349808 3.1782227 4.795021 3.1782227 7.672928l0 178.17169c0 5.99292 -4.8582153 10.851166 -10.851135 10.851166l-203.02213 0c-5.99292 0 -10.851166 -4.858246 -10.851166 -10.851166z" fill-rule="evenodd"></path><path stroke="#e69138" stroke-width="1.0" stroke-linejoin="round" stroke-linecap="butt" d="m380.67365 80.41849l0 0c0 -5.992935 4.858246 -10.851166 10.851166 -10.851166l203.02213 0c2.8778687 0 5.6379395 1.1432495 7.6729126 3.178238c2.0349731 2.0349808 3.1782227 4.795021 3.1782227 7.672928l0 178.17169c0 5.99292 -4.8582153 10.851166 -10.851135 10.851166l-203.02213 0c-5.99292 0 -10.851166 -4.858246 -10.851166 -10.851166z" fill-rule="evenodd"></path><path fill="#000000" fill-opacity="0.0" d="m359.1016 24.29216l267.87405 0l0 34.55118l-267.87405 0z" fill-rule="evenodd"></path><path fill="#f3f3f3" d="m382.9001 53.77216l0 -13.265625l-4.9375 0l0 -1.765625l11.90625 0l0 1.765625l-4.96875 0l0 13.265625l-2.0 0zm16.106201 0l0 -1.59375q-1.265625 1.84375 -3.453125 1.84375q-0.953125 0 -1.796875 -0.375q-0.828125 -0.375 -1.234375 -0.921875q-0.40625 -0.5625 -0.578125 -1.375q-0.109375 -0.546875 -0.109375 -1.71875l0 -6.75l1.84375 0l0 6.046875q0 1.4375 0.109375 1.9375q0.171875 0.734375 0.734375 1.15625q0.578125 0.40625 1.40625 0.40625q0.828125 0 1.546875 -0.421875q0.734375 -0.421875 1.03125 -1.15625q0.3125 -0.734375 0.3125 -2.140625l0 -5.828125l1.84375 0l0 10.890625l-1.65625 0zm4.7054443 0l0 -10.890625l1.671875 0l0 1.65625q0.625 -1.15625 1.15625 -1.53125q0.546875 -0.375 1.203125 -0.375q0.921875 0 1.890625 0.59375l-0.640625 1.71875q-0.671875 -0.40625 -1.34375 -0.40625q-0.609375 0 -1.09375 0.375q-0.484375 0.359375 -0.6875 1.0q-0.3125 0.984375 -0.3125 2.15625l0 5.703125l-1.84375 0zm7.1024475 0l0 -10.890625l1.671875 0l0 1.65625q0.625 -1.15625 1.15625 -1.53125q0.546875 -0.375 1.203125 -0.375q0.921875 0 1.890625 0.59375l-0.640625 1.71875q-0.671875 -0.40625 -1.34375 -0.40625q-0.609375 0 -1.09375 0.375q-0.484375 0.359375 -0.6875 1.0q-0.3125 0.984375 -0.3125 2.15625l0 5.703125l-1.84375 0zm14.586792 -3.5l1.90625 0.234375q-0.453125 1.671875 -1.671875 2.59375q-1.21875 0.921875 -3.125 0.921875q-2.390625 0 -3.796875 -1.46875q-1.390625 -1.484375 -1.390625 -4.140625q0 -2.734375 1.40625 -4.25q1.421875 -1.53125 3.6875 -1.53125q2.1875 0 3.5625 1.5q1.390625 1.484375 1.390625 4.171875q0 0.171875 -0.015625 0.5l-8.125 0q0.109375 1.796875 1.015625 2.75q0.921875 0.953125 2.28125 0.953125q1.015625 0 1.734375 -0.53125q0.71875 -0.546875 1.140625 -1.703125zm-6.0625 -2.984375l6.078125 0q-0.125 -1.375 -0.703125 -2.0625q-0.875 -1.078125 -2.28125 -1.078125q-1.265625 0 -2.140625 0.859375q-0.859375 0.84375 -0.953125 2.28125zm14.502319 4.828125l0.265625 1.640625q-0.78125 0.15625 -1.40625 0.15625q-1.0 0 -1.5625 -0.3125q-0.546875 -0.328125 -0.78125 -0.84375q-0.21875 -0.515625 -0.21875 -2.171875l0 -6.265625l-1.34375 0l0 -1.4375l1.34375 0l0 -2.703125l1.84375 -1.09375l0 3.796875l1.859375 0l0 1.4375l-1.859375 0l0 6.359375q0 0.796875 0.09375 1.03125q0.09375 0.21875 0.3125 0.359375q0.21875 0.125 0.640625 0.125q0.296875 0 0.8125 -0.078125zm14.913788 0.3125q-1.015625 0.875 -1.96875 1.234375q-0.953125 0.359375 -2.03125 0.359375q-1.796875 0 -2.765625 -0.875q-0.953125 -0.875 -0.953125 -2.25q0 -0.796875 0.359375 -1.453125q0.359375 -0.671875 0.953125 -1.0625q0.59375 -0.40625 1.328125 -0.609375q0.546875 -0.140625 1.640625 -0.28125q2.234375 -0.265625 3.296875 -0.625q0 -0.390625 0 -0.484375q0 -1.125 -0.515625 -1.59375q-0.71875 -0.625 -2.109375 -0.625q-1.296875 0 -1.921875 0.453125q-0.625 0.453125 -0.921875 1.625l-1.796875 -0.25q0.25 -1.15625 0.8125 -1.859375q0.5625 -0.71875 1.625 -1.109375q1.0625 -0.390625 2.46875 -0.390625q1.40625 0 2.265625 0.328125q0.875 0.328125 1.28125 0.828125q0.421875 0.5 0.578125 1.265625q0.09375 0.46875 0.09375 1.6875l0 2.46875q0 2.578125 0.109375 3.265625q0.125 0.671875 0.46875 1.296875l-1.921875 0q-0.28125 -0.578125 -0.375 -1.34375zm-0.140625 -4.125q-1.015625 0.40625 -3.015625 0.703125q-1.140625 0.15625 -1.625 0.375q-0.46875 0.203125 -0.71875 0.59375q-0.25 0.390625 -0.25 0.875q0 0.734375 0.546875 1.234375q0.5625 0.484375 1.640625 0.484375q1.0625 0 1.890625 -0.46875q0.84375 -0.46875 1.234375 -1.265625q0.296875 -0.625 0.296875 -1.84375l0 -0.6875zm4.9085693 5.46875l0 -10.890625l1.65625 0l0 1.546875q1.203125 -1.796875 3.46875 -1.796875q0.984375 0 1.796875 0.359375q0.828125 0.359375 1.234375 0.9375q0.421875 0.5625 0.578125 1.359375q0.109375 0.5 0.109375 1.78125l0 6.703125l-1.84375 0l0 -6.625q0 -1.125 -0.21875 -1.6875q-0.21875 -0.5625 -0.765625 -0.890625q-0.546875 -0.328125 -1.28125 -0.328125q-1.1875 0 -2.046875 0.75q-0.84375 0.734375 -0.84375 2.828125l0 5.953125l-1.84375 0zm18.924194 0l0 -1.375q-1.046875 1.625 -3.046875 1.625q-1.296875 0 -2.390625 -0.71875q-1.09375 -0.71875 -1.703125 -2.0q-0.59375 -1.296875 -0.59375 -2.96875q0 -1.625 0.546875 -2.953125q0.546875 -1.328125 1.625 -2.03125q1.09375 -0.71875 2.4375 -0.71875q0.984375 0 1.75 0.421875q0.765625 0.40625 1.25 1.078125l0 -5.390625l1.828125 0l0 15.03125l-1.703125 0zm-5.84375 -5.4375q0 2.09375 0.875 3.140625q0.890625 1.03125 2.09375 1.03125q1.203125 0 2.046875 -0.984375q0.859375 -1.0 0.859375 -3.03125q0 -2.234375 -0.875 -3.28125q-0.859375 -1.046875 -2.109375 -1.046875q-1.234375 0 -2.0625 1.015625q-0.828125 1.0 -0.828125 3.15625zm15.2717285 5.4375l5.8125 -7.828125l-5.125 -7.203125l2.359375 0l2.734375 3.859375q0.859375 1.1875 1.203125 1.84375q0.515625 -0.828125 1.203125 -1.71875l3.015625 -3.984375l2.171875 0l-5.28125 7.078125l5.6875 7.953125l-2.46875 0l-3.78125 -5.359375q-0.3125 -0.46875 -0.65625 -1.015625q-0.5 0.828125 -0.71875 1.140625l-3.765625 5.234375l-2.390625 0zm15.9913025 0l0 -2.109375l2.109375 0l0 2.109375q0 1.15625 -0.421875 1.859375q-0.40625 0.71875 -1.296875 1.109375l-0.5 -0.78125q0.578125 -0.265625 0.84375 -0.765625q0.28125 -0.484375 0.3125 -1.421875l-1.046875 0zm15.851288 0l0 -6.375l-5.796875 -8.65625l2.421875 0l2.953125 4.53125q0.828125 1.265625 1.53125 2.546875q0.6875 -1.1875 1.640625 -2.65625l2.921875 -4.421875l2.3125 0l-6.0 8.65625l0 6.375l-1.984375 0zm10.225708 0l0 -2.109375l2.109375 0l0 2.109375q0 1.15625 -0.421875 1.859375q-0.40625 0.71875 -1.296875 1.109375l-0.5 -0.78125q0.578125 -0.265625 0.84375 -0.765625q0.28125 -0.484375 0.3125 -1.421875l-1.046875 0zm10.085632 0l5.8125 -7.828125l-5.125 -7.203125l2.359375 0l2.734375 3.859375q0.859375 1.1875 1.203125 1.84375q0.515625 -0.828125 1.203125 -1.71875l3.015625 -3.984375l2.171875 0l-5.28125 7.078125l5.6875 7.953125l-2.46875 0l-3.78125 -5.359375q-0.3125 -0.46875 -0.65625 -1.015625q-0.5 0.828125 -0.71875 1.140625l-3.765625 5.234375l-2.390625 0zm20.698242 -3.25l1.828125 -0.28125q0.15625 1.09375 0.859375 1.6875q0.703125 0.578125 1.96875 0.578125q1.265625 0 1.875 -0.515625q0.625 -0.53125 0.625 -1.21875q0 -0.625 -0.546875 -0.984375q-0.375 -0.25 -1.890625 -0.625q-2.03125 -0.515625 -2.8125 -0.890625q-0.78125 -0.375 -1.1875 -1.03125q-0.40625 -0.671875 -0.40625 -1.46875q0 -0.71875 0.328125 -1.34375q0.34375 -0.625 0.90625 -1.03125q0.4375 -0.3125 1.171875 -0.53125q0.75 -0.234375 1.609375 -0.234375q1.28125 0 2.25 0.375q0.96875 0.375 1.421875 1.0q0.46875 0.625 0.640625 1.6875l-1.8125 0.25q-0.109375 -0.84375 -0.703125 -1.3125q-0.59375 -0.484375 -1.671875 -0.484375q-1.265625 0 -1.8125 0.421875q-0.546875 0.421875 -0.546875 0.984375q0 0.359375 0.234375 0.65625q0.21875 0.296875 0.703125 0.484375q0.28125 0.109375 1.625 0.46875q1.96875 0.53125 2.734375 0.859375q0.78125 0.328125 1.21875 0.96875q0.4375 0.640625 0.4375 1.578125q0 0.921875 -0.546875 1.75q-0.53125 0.8125 -1.546875 1.265625q-1.015625 0.4375 -2.296875 0.4375q-2.125 0 -3.234375 -0.875q-1.109375 -0.890625 -1.421875 -2.625zm11.3671875 3.25l0 -15.03125l1.84375 0l0 15.03125l-1.84375 0zm4.7852783 -12.90625l0 -2.125l1.84375 0l0 2.125l-1.84375 0zm0 12.90625l0 -10.890625l1.84375 0l0 10.890625l-1.84375 0zm11.800964 0l0 -1.375q-1.046875 1.625 -3.046875 1.625q-1.296875 0 -2.390625 -0.71875q-1.09375 -0.71875 -1.703125 -2.0q-0.59375 -1.296875 -0.59375 -2.96875q0 -1.625 0.546875 -2.953125q0.546875 -1.328125 1.625 -2.03125q1.09375 -0.71875 2.4375 -0.71875q0.984375 0 1.75 0.421875q0.765625 0.40625 1.25 1.078125l0 -5.390625l1.828125 0l0 15.03125l-1.703125 0zm-5.84375 -5.4375q0 2.09375 0.875 3.140625q0.890625 1.03125 2.09375 1.03125q1.203125 0 2.046875 -0.984375q0.859375 -1.0 0.859375 -3.03125q0 -2.234375 -0.875 -3.28125q-0.859375 -1.046875 -2.109375 -1.046875q-1.234375 0 -2.0625 1.015625q-0.828125 1.0 -0.828125 3.15625zm18.09607 1.9375l1.90625 0.234375q-0.453125 1.671875 -1.671875 2.59375q-1.21875 0.921875 -3.125 0.921875q-2.390625 0 -3.796875 -1.46875q-1.390625 -1.484375 -1.390625 -4.140625q0 -2.734375 1.40625 -4.25q1.421875 -1.53125 3.6875 -1.53125q2.1875 0 3.5625 1.5q1.390625 1.484375 1.390625 4.171875q0 0.171875 -0.015625 0.5l-8.125 0q0.109375 1.796875 1.015625 2.75q0.921875 0.953125 2.28125 0.953125q1.015625 0 1.734375 -0.53125q0.71875 -0.546875 1.140625 -1.703125zm-6.0625 -2.984375l6.078125 0q-0.125 -1.375 -0.703125 -2.0625q-0.875 -1.078125 -2.28125 -1.078125q-1.265625 0 -2.140625 0.859375q-0.859375 0.84375 -0.953125 2.28125zm9.721069 3.234375l1.828125 -0.28125q0.15625 1.09375 0.859375 1.6875q0.703125 0.578125 1.96875 0.578125q1.265625 0 1.875 -0.515625q0.625 -0.53125 0.625 -1.21875q0 -0.625 -0.546875 -0.984375q-0.375 -0.25 -1.890625 -0.625q-2.03125 -0.515625 -2.8125 -0.890625q-0.78125 -0.375 -1.1875 -1.03125q-0.40625 -0.671875 -0.40625 -1.46875q0 -0.71875 0.328125 -1.34375q0.34375 -0.625 0.90625 -1.03125q0.4375 -0.3125 1.171875 -0.53125q0.75 -0.234375 1.609375 -0.234375q1.28125 0 2.25 0.375q0.96875 0.375 1.421875 1.0q0.46875 0.625 0.640625 1.6875l-1.8125 0.25q-0.109375 -0.84375 -0.703125 -1.3125q-0.59375 -0.484375 -1.671875 -0.484375q-1.265625 0 -1.8125 0.421875q-0.546875 0.421875 -0.546875 0.984375q0 0.359375 0.234375 0.65625q0.21875 0.296875 0.703125 0.484375q0.28125 0.109375 1.625 0.46875q1.96875 0.53125 2.734375 0.859375q0.78125 0.328125 1.21875 0.96875q0.4375 0.640625 0.4375 1.578125q0 0.921875 -0.546875 1.75q-0.53125 0.8125 -1.546875 1.265625q-1.015625 0.4375 -2.296875 0.4375q-2.125 0 -3.234375 -0.875q-1.109375 -0.890625 -1.421875 -2.625z" fill-rule="nonzero"></path><path fill="#fce5cd" fill-opacity="0.8667" d="m639.2988 182.04338l0 0c0 -2.7717133 2.2468872 -5.018631 5.0186157 -5.018631l181.77374 0c1.3310547 0 2.607544 0.52874756 3.548706 1.4699249c0.9411621 0.94117737 1.4699097 2.217682 1.4699097 3.548706l0 82.4037c0 2.771698 -2.2468872 5.0186157 -5.0186157 5.0186157l-181.77374 0c-2.7717285 0 -5.0186157 -2.2469177 -5.0186157 -5.0186157z" fill-rule="evenodd"></path><path stroke="#e69138" stroke-width="1.0" stroke-linejoin="round" stroke-linecap="butt" d="m639.2988 182.04338l0 0c0 -2.7717133 2.2468872 -5.018631 5.0186157 -5.018631l181.77374 0c1.3310547 0 2.607544 0.52874756 3.548706 1.4699249c0.9411621 0.94117737 1.4699097 2.217682 1.4699097 3.548706l0 82.4037c0 2.771698 -2.2468872 5.0186157 -5.0186157 5.0186157l-181.77374 0c-2.7717285 0 -5.0186157 -2.2469177 -5.0186157 -5.0186157z" fill-rule="evenodd"></path><path fill="#000000" fill-opacity="0.0" d="m639.28406 137.10469l191.81104 0l0 34.551193l-191.81104 0z" fill-rule="evenodd"></path><path fill="#f3f3f3" d="m679.8075 161.75658l1.875 -0.171875q0.140625 1.140625 0.625 1.859375q0.484375 0.71875 1.515625 1.171875q1.03125 0.4375 2.3125 0.4375q1.125 0 2.0 -0.328125q0.875 -0.34375 1.296875 -0.9375q0.4375 -0.59375 0.4375 -1.28125q0 -0.703125 -0.421875 -1.234375q-0.40625 -0.53125 -1.34375 -0.890625q-0.609375 -0.234375 -2.6875 -0.734375q-2.0625 -0.5 -2.890625 -0.9375q-1.078125 -0.5625 -1.609375 -1.390625q-0.53125 -0.84375 -0.53125 -1.875q0 -1.140625 0.640625 -2.125q0.65625 -1.0 1.890625 -1.5q1.25 -0.515625 2.765625 -0.515625q1.671875 0 2.9375 0.53125q1.28125 0.53125 1.96875 1.578125q0.6875 1.046875 0.734375 2.375l-1.90625 0.140625q-0.15625 -1.421875 -1.046875 -2.140625q-0.875 -0.734375 -2.609375 -0.734375q-1.796875 0 -2.625 0.65625q-0.828125 0.65625 -0.828125 1.59375q0 0.8125 0.578125 1.328125q0.578125 0.53125 3.0 1.078125q2.421875 0.546875 3.328125 0.953125q1.3125 0.609375 1.9375 1.546875q0.625 0.921875 0.625 2.125q0 1.203125 -0.6875 2.265625q-0.6875 1.0625 -1.96875 1.65625q-1.28125 0.578125 -2.890625 0.578125q-2.046875 0 -3.4375 -0.59375q-1.375 -0.59375 -2.15625 -1.78125q-0.78125 -1.203125 -0.828125 -2.703125zm21.803772 4.828125l0 -1.59375q-1.265625 1.84375 -3.453125 1.84375q-0.953125 0 -1.796875 -0.375q-0.828125 -0.375 -1.234375 -0.921875q-0.40625 -0.5625 -0.578125 -1.375q-0.109375 -0.546875 -0.109375 -1.71875l0 -6.75l1.84375 0l0 6.046875q0 1.4375 0.109375 1.9375q0.171875 0.734375 0.734375 1.15625q0.578125 0.40625 1.40625 0.40625q0.828125 0 1.546875 -0.421875q0.734375 -0.421875 1.03125 -1.15625q0.3125 -0.734375 0.3125 -2.140625l0 -5.828125l1.84375 0l0 10.890625l-1.65625 0zm6.4398193 0l-1.71875 0l0 -15.03125l1.84375 0l0 5.359375q1.171875 -1.46875 2.984375 -1.46875q1.0 0 1.890625 0.40625q0.90625 0.40625 1.484375 1.140625q0.578125 0.734375 0.90625 1.78125q0.328125 1.03125 0.328125 2.203125q0 2.796875 -1.390625 4.328125q-1.375 1.53125 -3.3125 1.53125q-1.921875 0 -3.015625 -1.609375l0 1.359375zm-0.03125 -5.53125q0 1.96875 0.53125 2.828125q0.875 1.4375 2.359375 1.4375q1.21875 0 2.09375 -1.046875q0.890625 -1.0625 0.890625 -3.140625q0 -2.140625 -0.859375 -3.15625q-0.84375 -1.015625 -2.03125 -1.015625q-1.21875 0 -2.109375 1.0625q-0.875 1.046875 -0.875 3.03125zm9.471069 1.015625l0 -1.859375l5.671875 0l0 1.859375l-5.671875 0zm7.071228 1.265625l1.828125 -0.28125q0.15625 1.09375 0.859375 1.6875q0.703125 0.578125 1.96875 0.578125q1.265625 0 1.875 -0.515625q0.625 -0.53125 0.625 -1.21875q0 -0.625 -0.546875 -0.984375q-0.375 -0.25 -1.890625 -0.625q-2.03125 -0.515625 -2.8125 -0.890625q-0.78125 -0.375 -1.1875 -1.03125q-0.40625 -0.671875 -0.40625 -1.46875q0 -0.71875 0.328125 -1.34375q0.34375 -0.625 0.90625 -1.03125q0.4375 -0.3125 1.171875 -0.53125q0.75 -0.234375 1.609375 -0.234375q1.28125 0 2.25 0.375q0.96875 0.375 1.421875 1.0q0.46875 0.625 0.640625 1.6875l-1.8125 0.25q-0.109375 -0.84375 -0.703125 -1.3125q-0.59375 -0.484375 -1.671875 -0.484375q-1.265625 0 -1.8125 0.421875q-0.546875 0.421875 -0.546875 0.984375q0 0.359375 0.234375 0.65625q0.21875 0.296875 0.703125 0.484375q0.28125 0.109375 1.625 0.46875q1.96875 0.53125 2.734375 0.859375q0.78125 0.328125 1.21875 0.96875q0.4375 0.640625 0.4375 1.578125q0 0.921875 -0.546875 1.75q-0.53125 0.8125 -1.546875 1.265625q-1.015625 0.4375 -2.296875 0.4375q-2.125 0 -3.234375 -0.875q-1.109375 -0.890625 -1.421875 -2.625zm11.4140625 7.421875l0 -15.0625l1.671875 0l0 1.421875q0.59375 -0.84375 1.34375 -1.25q0.75 -0.421875 1.8125 -0.421875q1.40625 0 2.46875 0.71875q1.0625 0.71875 1.609375 2.03125q0.546875 1.3125 0.546875 2.859375q0 1.671875 -0.609375 3.015625q-0.59375 1.34375 -1.734375 2.0625q-1.140625 0.703125 -2.40625 0.703125q-0.921875 0 -1.65625 -0.390625q-0.734375 -0.390625 -1.203125 -0.984375l0 5.296875l-1.84375 0zm1.671875 -9.5625q0 2.109375 0.84375 3.125q0.859375 1.0 2.0625 1.0q1.234375 0 2.109375 -1.046875q0.875 -1.046875 0.875 -3.21875q0 -2.09375 -0.859375 -3.125q-0.859375 -1.03125 -2.046875 -1.03125q-1.171875 0 -2.078125 1.109375q-0.90625 1.09375 -0.90625 3.1875zm10.189819 -7.515625l0 -2.125l1.84375 0l0 2.125l-1.84375 0zm0 12.90625l0 -10.890625l1.84375 0l0 10.890625l-1.84375 0zm4.7384033 0l0 -10.890625l1.65625 0l0 1.546875q1.203125 -1.796875 3.46875 -1.796875q0.984375 0 1.796875 0.359375q0.828125 0.359375 1.234375 0.9375q0.421875 0.5625 0.578125 1.359375q0.109375 0.5 0.109375 1.78125l0 6.703125l-1.84375 0l0 -6.625q0 -1.125 -0.21875 -1.6875q-0.21875 -0.5625 -0.765625 -0.890625q-0.546875 -0.328125 -1.28125 -0.328125q-1.1875 0 -2.046875 0.75q-0.84375 0.734375 -0.84375 2.828125l0 5.953125l-1.84375 0zm18.924194 0l0 -1.375q-1.046875 1.625 -3.046875 1.625q-1.296875 0 -2.390625 -0.71875q-1.09375 -0.71875 -1.703125 -2.0q-0.59375 -1.296875 -0.59375 -2.96875q0 -1.625 0.546875 -2.953125q0.546875 -1.328125 1.625 -2.03125q1.09375 -0.71875 2.4375 -0.71875q0.984375 0 1.75 0.421875q0.765625 0.40625 1.25 1.078125l0 -5.390625l1.828125 0l0 15.03125l-1.703125 0zm-5.84375 -5.4375q0 2.09375 0.875 3.140625q0.890625 1.03125 2.09375 1.03125q1.203125 0 2.046875 -0.984375q0.859375 -1.0 0.859375 -3.03125q0 -2.234375 -0.875 -3.28125q-0.859375 -1.046875 -2.109375 -1.046875q-1.234375 0 -2.0625 1.015625q-0.828125 1.0 -0.828125 3.15625zm10.596069 5.4375l0 -15.03125l1.84375 0l0 15.03125l-1.84375 0zm12.238464 -3.5l1.90625 0.234375q-0.453125 1.671875 -1.671875 2.59375q-1.21875 0.921875 -3.125 0.921875q-2.390625 0 -3.796875 -1.46875q-1.390625 -1.484375 -1.390625 -4.140625q0 -2.734375 1.40625 -4.25q1.421875 -1.53125 3.6875 -1.53125q2.1875 0 3.5625 1.5q1.390625 1.484375 1.390625 4.171875q0 0.171875 -0.015625 0.5l-8.125 0q0.109375 1.796875 1.015625 2.75q0.921875 0.953125 2.28125 0.953125q1.015625 0 1.734375 -0.53125q0.71875 -0.546875 1.140625 -1.703125zm-6.0625 -2.984375l6.078125 0q-0.125 -1.375 -0.703125 -2.0625q-0.875 -1.078125 -2.28125 -1.078125q-1.265625 0 -2.140625 0.859375q-0.859375 0.84375 -0.953125 2.28125z" fill-rule="nonzero"></path><path fill="#f6b26b" fill-opacity="0.8667" d="m0 291.367l0 0c0 -7.324219E-4 5.998914E-4 -0.0013427734 0.0013398951 -0.0013427734l160.78606 0.0013427734c3.5095215E-4 0 7.019043E-4 1.2207031E-4 9.460449E-4 3.9672852E-4c2.593994E-4 2.4414062E-4 3.9672852E-4 5.79834E-4 3.9672852E-4 9.460449E-4l-0.0013427734 344.59705c0 7.9345703E-4 -5.950928E-4 0.0013427734 -0.0013427734 0.0013427734l-160.78606 -0.0013427734l2.3080314E-19 0c-7.400036E-4 0 -0.0013398951 -5.493164E-4 -0.0013398951 -0.0012817383z" fill-rule="evenodd"></path><path stroke="#e69138" stroke-width="1.0" stroke-linejoin="round" stroke-linecap="butt" d="m0 291.367l0 0c0 -7.324219E-4 5.998914E-4 -0.0013427734 0.0013398951 -0.0013427734l160.78606 0.0013427734c3.5095215E-4 0 7.019043E-4 1.2207031E-4 9.460449E-4 3.9672852E-4c2.593994E-4 2.4414062E-4 3.9672852E-4 5.79834E-4 3.9672852E-4 9.460449E-4l-0.0013427734 344.59705c0 7.9345703E-4 -5.950928E-4 0.0013427734 -0.0013427734 0.0013427734l-160.78606 -0.0013427734l2.3080314E-19 0c-7.400036E-4 0 -0.0013398951 -5.493164E-4 -0.0013398951 -0.0012817383z" fill-rule="evenodd"></path><path fill="#f6b26b" fill-opacity="0.8667" d="m674.11475 291.367l0 0c0 -7.324219E-4 6.1035156E-4 -0.0013427734 0.0013427734 -0.0013427734l160.78607 0.0013427734c3.6621094E-4 0 7.324219E-4 1.2207031E-4 9.765625E-4 3.9672852E-4c2.4414062E-4 2.4414062E-4 3.6621094E-4 5.79834E-4 3.6621094E-4 9.460449E-4l-0.0013427734 344.59705c0 7.9345703E-4 -6.1035156E-4 0.0013427734 -0.0013427734 0.0013427734l-160.78607 -0.0013427734l0 0c-7.324219E-4 0 -0.0013427734 -5.493164E-4 -0.0013427734 -0.0012817383z" fill-rule="evenodd"></path><path stroke="#e69138" stroke-width="1.0" stroke-linejoin="round" stroke-linecap="butt" d="m674.11475 291.367l0 0c0 -7.324219E-4 6.1035156E-4 -0.0013427734 0.0013427734 -0.0013427734l160.78607 0.0013427734c3.6621094E-4 0 7.324219E-4 1.2207031E-4 9.765625E-4 3.9672852E-4c2.4414062E-4 2.4414062E-4 3.6621094E-4 5.79834E-4 3.6621094E-4 9.460449E-4l-0.0013427734 344.59705c0 7.9345703E-4 -6.1035156E-4 0.0013427734 -0.0013427734 0.0013427734l-160.78607 -0.0013427734l0 0c-7.324219E-4 0 -0.0013427734 -5.493164E-4 -0.0013427734 -0.0012817383z" fill-rule="evenodd"></path><path fill="#f6b26b" fill-opacity="0.8667" d="m160.791 513.61145l0 0c0 -0.002380371 0.0019073486 -0.004272461 0.004272461 -0.004272461l513.79095 0.004272461c0.001159668 0 0.0022583008 4.8828125E-4 0.0030517578 0.0012817383c7.9345703E-4 7.9345703E-4 0.0012817383 0.0018920898 0.0012817383 0.0029907227l-0.004333496 122.32648c0 0.002319336 -0.0018920898 0.004272461 -0.004272461 0.004272461l-513.79095 -0.004272461l0 0c-0.0023651123 0 -0.0042877197 -0.001953125 -0.0042877197 -0.004333496z" fill-rule="evenodd"></path><path stroke="#e69138" stroke-width="1.0" stroke-linejoin="round" stroke-linecap="butt" d="m160.791 513.61145l0 0c0 -0.002380371 0.0019073486 -0.004272461 0.004272461 -0.004272461l513.79095 0.004272461c0.001159668 0 0.0022583008 4.8828125E-4 0.0030517578 0.0012817383c7.9345703E-4 7.9345703E-4 0.0012817383 0.0018920898 0.0012817383 0.0029907227l-0.004333496 122.32648c0 0.002319336 -0.0018920898 0.004272461 -0.004272461 0.004272461l-513.79095 -0.004272461l0 0c-0.0023651123 0 -0.0042877197 -0.001953125 -0.0042877197 -0.004333496z" fill-rule="evenodd"></path><path fill="#fce5cd" fill-opacity="0.8667" d="m488.14496 420.23358l0 0c0 -8.544922E-4 7.019043E-4 -0.0015563965 0.0015563965 -0.0015563965l185.9827 0.0015563965c4.272461E-4 0 7.9345703E-4 1.5258789E-4 0.0010986328 4.5776367E-4c3.0517578E-4 2.746582E-4 4.272461E-4 6.713867E-4 4.272461E-4 0.0010986328l-0.0015258789 93.38425c0 8.544922E-4 -6.713867E-4 0.0015869141 -0.0015258789 0.0015869141l-185.98273 -0.0015869141l0 0c-8.544922E-4 0 -0.0015563965 -6.713867E-4 -0.0015563965 -0.0015258789z" fill-rule="evenodd"></path><path stroke="#e69138" stroke-width="1.0" stroke-linejoin="round" stroke-linecap="butt" d="m488.14496 420.23358l0 0c0 -8.544922E-4 7.019043E-4 -0.0015563965 0.0015563965 -0.0015563965l185.9827 0.0015563965c4.272461E-4 0 7.9345703E-4 1.5258789E-4 0.0010986328 4.5776367E-4c3.0517578E-4 2.746582E-4 4.272461E-4 6.713867E-4 4.272461E-4 0.0010986328l-0.0015258789 93.38425c0 8.544922E-4 -6.713867E-4 0.0015869141 -0.0015258789 0.0015869141l-185.98273 -0.0015869141l0 0c-8.544922E-4 0 -0.0015563965 -6.713867E-4 -0.0015563965 -0.0015258789z" fill-rule="evenodd"></path><path fill="#000000" fill-opacity="0.0" d="m488.14496 380.07928l185.98425 0l0 34.551178l-185.98425 0z" fill-rule="evenodd"></path><path fill="#efefef" d="m556.7242 404.29367l1.984375 0.5q-0.625 2.453125 -2.25 3.734375q-1.625 1.28125 -3.96875 1.28125q-2.421875 0 -3.953125 -0.984375q-1.515625 -0.984375 -2.3125 -2.859375q-0.796875 -1.875 -0.796875 -4.03125q0 -2.359375 0.890625 -4.09375q0.90625 -1.75 2.5625 -2.65625q1.65625 -0.90625 3.640625 -0.90625q2.25 0 3.78125 1.15625q1.546875 1.140625 2.15625 3.21875l-1.953125 0.453125q-0.53125 -1.640625 -1.53125 -2.390625q-0.984375 -0.75 -2.5 -0.75q-1.71875 0 -2.890625 0.84375q-1.15625 0.828125 -1.640625 2.234375q-0.46875 1.390625 -0.46875 2.875q0 1.921875 0.5625 3.359375q0.5625 1.421875 1.734375 2.125q1.1875 0.703125 2.5625 0.703125q1.671875 0 2.828125 -0.953125q1.15625 -0.96875 1.5625 -2.859375zm3.7618408 -0.171875q0 -3.03125 1.671875 -4.484375q1.40625 -1.21875 3.421875 -1.21875q2.25 0 3.671875 1.484375q1.4375 1.46875 1.4375 4.0625q0 2.09375 -0.640625 3.296875q-0.625 1.203125 -1.828125 1.875q-1.203125 0.671875 -2.640625 0.671875q-2.28125 0 -3.6875 -1.46875q-1.40625 -1.46875 -1.40625 -4.21875zm1.890625 0q0 2.078125 0.90625 3.125q0.921875 1.046875 2.296875 1.046875q1.375 0 2.28125 -1.046875q0.921875 -1.046875 0.921875 -3.1875q0 -2.03125 -0.921875 -3.0625q-0.90625 -1.046875 -2.28125 -1.046875q-1.375 0 -2.296875 1.046875q-0.90625 1.03125 -0.90625 3.125zm9.971069 0q0 -3.03125 1.671875 -4.484375q1.40625 -1.21875 3.421875 -1.21875q2.25 0 3.671875 1.484375q1.4375 1.46875 1.4375 4.0625q0 2.09375 -0.640625 3.296875q-0.625 1.203125 -1.828125 1.875q-1.203125 0.671875 -2.640625 0.671875q-2.28125 0 -3.6875 -1.46875q-1.40625 -1.46875 -1.40625 -4.21875zm1.890625 0q0 2.078125 0.90625 3.125q0.921875 1.046875 2.296875 1.046875q1.375 0 2.28125 -1.046875q0.921875 -1.046875 0.921875 -3.1875q0 -2.03125 -0.921875 -3.0625q-0.90625 -1.046875 -2.28125 -1.046875q-1.375 0 -2.296875 1.046875q-0.90625 1.03125 -0.90625 3.125zm10.611694 5.4375l0 -15.03125l1.84375 0l0 15.03125l-1.84375 0zm11.879089 -1.34375q-1.015625 0.875 -1.96875 1.234375q-0.953125 0.359375 -2.03125 0.359375q-1.796875 0 -2.765625 -0.875q-0.953125 -0.875 -0.953125 -2.25q0 -0.796875 0.359375 -1.453125q0.359375 -0.671875 0.953125 -1.0625q0.59375 -0.40625 1.328125 -0.609375q0.546875 -0.140625 1.640625 -0.28125q2.234375 -0.265625 3.296875 -0.625q0 -0.390625 0 -0.484375q0 -1.125 -0.515625 -1.59375q-0.71875 -0.625 -2.109375 -0.625q-1.296875 0 -1.921875 0.453125q-0.625 0.453125 -0.921875 1.625l-1.796875 -0.25q0.25 -1.15625 0.8125 -1.859375q0.5625 -0.71875 1.625 -1.109375q1.0625 -0.390625 2.46875 -0.390625q1.40625 0 2.265625 0.328125q0.875 0.328125 1.28125 0.828125q0.421875 0.5 0.578125 1.265625q0.09375 0.46875 0.09375 1.6875l0 2.46875q0 2.578125 0.109375 3.265625q0.125 0.671875 0.46875 1.296875l-1.921875 0q-0.28125 -0.578125 -0.375 -1.34375zm-0.140625 -4.125q-1.015625 0.40625 -3.015625 0.703125q-1.140625 0.15625 -1.625 0.375q-0.46875 0.203125 -0.71875 0.59375q-0.25 0.390625 -0.25 0.875q0 0.734375 0.546875 1.234375q0.5625 0.484375 1.640625 0.484375q1.0625 0 1.890625 -0.46875q0.84375 -0.46875 1.234375 -1.265625q0.296875 -0.625 0.296875 -1.84375l0 -0.6875zm4.9085693 5.46875l0 -10.890625l1.65625 0l0 1.546875q1.203125 -1.796875 3.46875 -1.796875q0.984375 0 1.796875 0.359375q0.828125 0.359375 1.234375 0.9375q0.421875 0.5625 0.578125 1.359375q0.109375 0.5 0.109375 1.78125l0 6.703125l-1.84375 0l0 -6.625q0 -1.125 -0.21875 -1.6875q-0.21875 -0.5625 -0.765625 -0.890625q-0.546875 -0.328125 -1.28125 -0.328125q-1.1875 0 -2.046875 0.75q-0.84375 0.734375 -0.84375 2.828125l0 5.953125l-1.84375 0zm15.892944 -1.65625l0.265625 1.640625q-0.78125 0.15625 -1.40625 0.15625q-1.0 0 -1.5625 -0.3125q-0.546875 -0.328125 -0.78125 -0.84375q-0.21875 -0.515625 -0.21875 -2.171875l0 -6.265625l-1.34375 0l0 -1.4375l1.34375 0l0 -2.703125l1.84375 -1.09375l0 3.796875l1.859375 0l0 1.4375l-1.859375 0l0 6.359375q0 0.796875 0.09375 1.03125q0.09375 0.21875 0.3125 0.359375q0.21875 0.125 0.640625 0.125q0.296875 0 0.8125 -0.078125z" fill-rule="nonzero"></path><path fill="#ffffff" d="m32.45433 208.39488l0 0c0 -4.4879456 3.6382027 -8.12616 8.126148 -8.12616l79.65321 0c2.1551895 0 4.222107 0.8561554 5.7460556 2.3800964c1.5239487 1.5239563 2.3800964 3.590866 2.3800964 5.746063l0 32.5036c0 4.4879456 -3.6382065 8.126144 -8.126152 8.126144l-79.65321 0c-4.4879456 0 -8.126148 -3.6381989 -8.126148 -8.126144z" fill-rule="evenodd"></path><path stroke="#e69138" stroke-width="1.0" stroke-linejoin="round" stroke-linecap="butt" d="m32.45433 208.39488l0 0c0 -4.4879456 3.6382027 -8.12616 8.126148 -8.12616l79.65321 0c2.1551895 0 4.222107 0.8561554 5.7460556 2.3800964c1.5239487 1.5239563 2.3800964 3.590866 2.3800964 5.746063l0 32.5036c0 4.4879456 -3.6382065 8.126144 -8.126152 8.126144l-79.65321 0c-4.4879456 0 -8.126148 -3.6381989 -8.126148 -8.126144z" fill-rule="evenodd"></path><path fill="#ffffff" d="m185.9828 208.39615l0 0c0 -4.4879456 3.6381989 -8.126144 8.126144 -8.126144l79.65323 0c2.155182 0 4.222107 0.85614014 5.7460327 2.3800964c1.5239563 1.523941 2.3800964 3.590866 2.3800964 5.746048l0 32.503616c0 4.4879456 -3.6381836 8.126144 -8.126129 8.126144l-79.65323 0c-4.4879456 0 -8.126144 -3.6381989 -8.126144 -8.126144z" fill-rule="evenodd"></path><path stroke="#e69138" stroke-width="1.0" stroke-linejoin="round" stroke-linecap="butt" d="m185.9828 208.39615l0 0c0 -4.4879456 3.6381989 -8.126144 8.126144 -8.126144l79.65323 0c2.155182 0 4.222107 0.85614014 5.7460327 2.3800964c1.5239563 1.523941 2.3800964 3.590866 2.3800964 5.746048l0 32.503616c0 4.4879456 -3.6381836 8.126144 -8.126129 8.126144l-79.65323 0c-4.4879456 0 -8.126144 -3.6381989 -8.126144 -8.126144z" fill-rule="evenodd"></path><path fill="#ffffff" d="m31.96068 335.8059l0 0c0 -4.4879456 3.6382008 -8.126129 8.126146 -8.126129l79.65321 0c2.1551895 0 4.222107 0.85614014 5.7460556 2.3800964c1.5239487 1.5239258 2.3800888 3.5908508 2.3800888 5.7460327l0 32.50363c0 4.4879456 -3.6381989 8.126129 -8.126144 8.126129l-79.65321 0c-4.4879456 0 -8.126146 -3.6381836 -8.126146 -8.126129z" fill-rule="evenodd"></path><path stroke="#e69138" stroke-width="1.0" stroke-linejoin="round" stroke-linecap="butt" d="m31.96068 335.8059l0 0c0 -4.4879456 3.6382008 -8.126129 8.126146 -8.126129l79.65321 0c2.1551895 0 4.222107 0.85614014 5.7460556 2.3800964c1.5239487 1.5239258 2.3800888 3.5908508 2.3800888 5.7460327l0 32.50363c0 4.4879456 -3.6381989 8.126129 -8.126144 8.126129l-79.65321 0c-4.4879456 0 -8.126146 -3.6381836 -8.126146 -8.126129z" fill-rule="evenodd"></path><path fill="#ffffff" d="m31.96068 558.5379l0 0c0 -4.487915 3.6382008 -8.12616 8.126146 -8.12616l79.65321 0c2.1551895 0 4.222107 0.8562012 5.7460556 2.380127c1.5239487 1.5239258 2.3800888 3.5908813 2.3800888 5.7460327l0 32.5036c0 4.487976 -3.6381989 8.12616 -8.126144 8.12616l-79.65321 0c-4.4879456 0 -8.126146 -3.6381836 -8.126146 -8.12616z" fill-rule="evenodd"></path><path stroke="#e69138" stroke-width="1.0" stroke-linejoin="round" stroke-linecap="butt" d="m31.96068 558.5379l0 0c0 -4.487915 3.6382008 -8.12616 8.126146 -8.12616l79.65321 0c2.1551895 0 4.222107 0.8562012 5.7460556 2.380127c1.5239487 1.5239258 2.3800888 3.5908813 2.3800888 5.7460327l0 32.5036c0 4.487976 -3.6381989 8.12616 -8.126144 8.12616l-79.65321 0c-4.4879456 0 -8.126146 -3.6381836 -8.126146 -8.12616z" fill-rule="evenodd"></path><path fill="#ffffff" d="m533.1919 447.4124l0 0c0 -4.4879456 3.6381836 -8.126129 8.12616 -8.126129l79.6532 0c2.1551514 0 4.222107 0.85614014 5.7460327 2.3800964c1.5239868 1.5239258 2.380127 3.5908508 2.380127 5.7460327l0 32.50363c0 4.4879456 -3.6382446 8.126129 -8.12616 8.126129l-79.6532 0c-4.487976 0 -8.12616 -3.6381836 -8.12616 -8.126129z" fill-rule="evenodd"></path><path stroke="#e69138" stroke-width="1.0" stroke-linejoin="round" stroke-linecap="butt" d="m533.1919 447.4124l0 0c0 -4.4879456 3.6381836 -8.126129 8.12616 -8.126129l79.6532 0c2.1551514 0 4.222107 0.85614014 5.7460327 2.3800964c1.5239868 1.5239258 2.380127 3.5908508 2.380127 5.7460327l0 32.50363c0 4.4879456 -3.6382446 8.126129 -8.12616 8.126129l-79.6532 0c-4.487976 0 -8.12616 -3.6381836 -8.12616 -8.126129z" fill-rule="evenodd"></path><path fill="#ffffff" d="m707.5197 558.5379l0 0c0 -4.487915 3.6382446 -8.12616 8.12616 -8.12616l79.6532 0c2.1552124 0 4.222107 0.8562012 5.7460938 2.380127c1.5239258 1.5239258 2.380066 3.5908813 2.380066 5.7460327l0 32.5036c0 4.487976 -3.6381836 8.12616 -8.12616 8.12616l-79.6532 0c-4.487915 0 -8.12616 -3.6381836 -8.12616 -8.12616z" fill-rule="evenodd"></path><path stroke="#e69138" stroke-width="1.0" stroke-linejoin="round" stroke-linecap="butt" d="m707.5197 558.5379l0 0c0 -4.487915 3.6382446 -8.12616 8.12616 -8.12616l79.6532 0c2.1552124 0 4.222107 0.8562012 5.7460938 2.380127c1.5239258 1.5239258 2.380066 3.5908813 2.380066 5.7460327l0 32.5036c0 4.487976 -3.6381836 8.12616 -8.12616 8.12616l-79.6532 0c-4.487915 0 -8.12616 -3.6381836 -8.12616 -8.12616z" fill-rule="evenodd"></path><path fill="#ffffff" d="m706.5694 335.8059l0 0c0 -4.4879456 3.6381836 -8.126129 8.12616 -8.126129l79.6532 0c2.1552124 0 4.222107 0.85614014 5.7460327 2.3800964c1.5239868 1.5239258 2.380127 3.5908508 2.380127 5.7460327l0 32.50363c0 4.4879456 -3.6381836 8.126129 -8.12616 8.126129l-79.6532 0c-4.487976 0 -8.12616 -3.6381836 -8.12616 -8.126129z" fill-rule="evenodd"></path><path stroke="#e69138" stroke-width="1.0" stroke-linejoin="round" stroke-linecap="butt" d="m706.5694 335.8059l0 0c0 -4.4879456 3.6381836 -8.126129 8.12616 -8.126129l79.6532 0c2.1552124 0 4.222107 0.85614014 5.7460327 2.3800964c1.5239868 1.5239258 2.380127 3.5908508 2.380127 5.7460327l0 32.50363c0 4.4879456 -3.6381836 8.126129 -8.12616 8.126129l-79.6532 0c-4.487976 0 -8.12616 -3.6381836 -8.12616 -8.126129z" fill-rule="evenodd"></path><path fill="#000000" fill-opacity="0.0" d="m324.46494 557.5126l185.98425 0l0 34.55121l-185.98425 0z" fill-rule="evenodd"></path><path fill="#efefef" d="m357.95633 586.9926l0 -15.03125l2.984375 0l3.5625 10.640625q0.5 1.484375 0.71875 2.234375q0.25 -0.828125 0.796875 -2.421875l3.609375 -10.453125l2.671875 0l0 15.03125l-1.921875 0l0 -12.578125l-4.359375 12.578125l-1.796875 0l-4.359375 -12.796875l0 12.796875l-1.90625 0zm24.688354 -1.34375q-1.015625 0.875 -1.96875 1.234375q-0.953125 0.359375 -2.03125 0.359375q-1.796875 0 -2.765625 -0.875q-0.953125 -0.875 -0.953125 -2.25q0 -0.796875 0.359375 -1.453125q0.359375 -0.671875 0.953125 -1.0625q0.59375 -0.40625 1.328125 -0.609375q0.546875 -0.140625 1.640625 -0.28125q2.234375 -0.265625 3.296875 -0.625q0 -0.390625 0 -0.484375q0 -1.125 -0.515625 -1.59375q-0.71875 -0.625 -2.109375 -0.625q-1.296875 0 -1.921875 0.453125q-0.625 0.453125 -0.921875 1.625l-1.796875 -0.25q0.25 -1.15625 0.8125 -1.859375q0.5625 -0.71875 1.625 -1.109375q1.0625 -0.390625 2.46875 -0.390625q1.40625 0 2.265625 0.328125q0.875 0.328125 1.28125 0.828125q0.421875 0.5 0.578125 1.265625q0.09375 0.46875 0.09375 1.6875l0 2.46875q0 2.578125 0.109375 3.265625q0.125 0.671875 0.46875 1.296875l-1.921875 0q-0.28125 -0.578125 -0.375 -1.34375zm-0.140625 -4.125q-1.015625 0.40625 -3.015625 0.703125q-1.140625 0.15625 -1.625 0.375q-0.46875 0.203125 -0.71875 0.59375q-0.25 0.390625 -0.25 0.875q0 0.734375 0.546875 1.234375q0.5625 0.484375 1.640625 0.484375q1.0625 0 1.890625 -0.46875q0.84375 -0.46875 1.234375 -1.265625q0.296875 -0.625 0.296875 -1.84375l0 -0.6875zm12.002319 1.484375l1.828125 0.234375q-0.296875 1.875 -1.53125 2.9375q-1.21875 1.0625 -3.015625 1.0625q-2.234375 0 -3.59375 -1.453125q-1.34375 -1.46875 -1.34375 -4.203125q0 -1.765625 0.578125 -3.078125q0.578125 -1.328125 1.765625 -1.984375q1.203125 -0.671875 2.609375 -0.671875q1.78125 0 2.90625 0.90625q1.125 0.890625 1.4375 2.546875l-1.78125 0.28125q-0.265625 -1.109375 -0.921875 -1.65625q-0.640625 -0.5625 -1.5625 -0.5625q-1.40625 0 -2.28125 1.0q-0.859375 1.0 -0.859375 3.171875q0 2.1875 0.84375 3.1875q0.84375 1.0 2.1875 1.0q1.09375 0 1.8125 -0.671875q0.734375 -0.671875 0.921875 -2.046875zm3.5703125 3.984375l0 -15.03125l1.84375 0l0 5.390625q1.28125 -1.5 3.25 -1.5q1.21875 0 2.109375 0.484375q0.890625 0.46875 1.265625 1.3125q0.390625 0.84375 0.390625 2.4375l0 6.90625l-1.84375 0l0 -6.90625q0 -1.375 -0.609375 -2.0q-0.59375 -0.640625 -1.6875 -0.640625q-0.8125 0 -1.546875 0.421875q-0.71875 0.421875 -1.03125 1.15625q-0.296875 0.734375 -0.296875 2.015625l0 5.953125l-1.84375 0zm11.861694 -12.90625l0 -2.125l1.84375 0l0 2.125l-1.84375 0zm0 12.90625l0 -10.890625l1.84375 0l0 10.890625l-1.84375 0zm4.738434 0l0 -10.890625l1.65625 0l0 1.546875q1.203125 -1.796875 3.46875 -1.796875q0.984375 0 1.796875 0.359375q0.828125 0.359375 1.234375 0.9375q0.421875 0.5625 0.578125 1.359375q0.109375 0.5 0.109375 1.78125l0 6.703125l-1.84375 0l0 -6.625q0 -1.125 -0.21875 -1.6875q-0.21875 -0.5625 -0.765625 -0.890625q-0.546875 -0.328125 -1.28125 -0.328125q-1.1875 0 -2.046875 0.75q-0.84375 0.734375 -0.84375 2.828125l0 5.953125l-1.84375 0zm19.31482 -3.5l1.90625 0.234375q-0.453125 1.671875 -1.671875 2.59375q-1.21875 0.921875 -3.125 0.921875q-2.390625 0 -3.796875 -1.46875q-1.390625 -1.484375 -1.390625 -4.140625q0 -2.734375 1.40625 -4.25q1.421875 -1.53125 3.6875 -1.53125q2.1875 0 3.5625 1.5q1.390625 1.484375 1.390625 4.171875q0 0.171875 -0.015625 0.5l-8.125 0q0.109375 1.796875 1.015625 2.75q0.921875 0.953125 2.28125 0.953125q1.015625 0 1.734375 -0.53125q0.71875 -0.546875 1.140625 -1.703125zm-6.0625 -2.984375l6.078125 0q-0.125 -1.375 -0.703125 -2.0625q-0.875 -1.078125 -2.28125 -1.078125q-1.265625 0 -2.140625 0.859375q-0.859375 0.84375 -0.953125 2.28125zm18.099854 6.484375l-1.71875 0l0 -15.03125l1.84375 0l0 5.359375q1.171875 -1.46875 2.984375 -1.46875q1.0 0 1.890625 0.40625q0.90625 0.40625 1.484375 1.140625q0.578125 0.734375 0.90625 1.78125q0.328125 1.03125 0.328125 2.203125q0 2.796875 -1.390625 4.328125q-1.375 1.53125 -3.3125 1.53125q-1.921875 0 -3.015625 -1.609375l0 1.359375zm-0.03125 -5.53125q0 1.96875 0.53125 2.828125q0.875 1.4375 2.359375 1.4375q1.21875 0 2.09375 -1.046875q0.890625 -1.0625 0.890625 -3.140625q0 -2.140625 -0.859375 -3.15625q-0.84375 -1.015625 -2.03125 -1.015625q-1.21875 0 -2.109375 1.0625q-0.875 1.046875 -0.875 3.03125zm17.642944 2.03125l1.90625 0.234375q-0.453125 1.671875 -1.671875 2.59375q-1.21875 0.921875 -3.125 0.921875q-2.390625 0 -3.796875 -1.46875q-1.390625 -1.484375 -1.390625 -4.140625q0 -2.734375 1.40625 -4.25q1.421875 -1.53125 3.6875 -1.53125q2.1875 0 3.5625 1.5q1.390625 1.484375 1.390625 4.171875q0 0.171875 -0.015625 0.5l-8.125 0q0.109375 1.796875 1.015625 2.75q0.921875 0.953125 2.28125 0.953125q1.015625 0 1.734375 -0.53125q0.71875 -0.546875 1.140625 -1.703125zm-6.0625 -2.984375l6.078125 0q-0.125 -1.375 -0.703125 -2.0625q-0.875 -1.078125 -2.28125 -1.078125q-1.265625 0 -2.140625 0.859375q-0.859375 0.84375 -0.953125 2.28125zm17.53357 6.484375l0 -1.375q-1.046875 1.625 -3.046875 1.625q-1.296875 0 -2.390625 -0.71875q-1.09375 -0.71875 -1.703125 -2.0q-0.59375 -1.296875 -0.59375 -2.96875q0 -1.625 0.546875 -2.953125q0.546875 -1.328125 1.625 -2.03125q1.09375 -0.71875 2.4375 -0.71875q0.984375 0 1.75 0.421875q0.765625 0.40625 1.25 1.078125l0 -5.390625l1.828125 0l0 15.03125l-1.703125 0zm-5.84375 -5.4375q0 2.09375 0.875 3.140625q0.890625 1.03125 2.09375 1.03125q1.203125 0 2.046875 -0.984375q0.859375 -1.0 0.859375 -3.03125q0 -2.234375 -0.875 -3.28125q-0.859375 -1.046875 -2.109375 -1.046875q-1.234375 0 -2.0625 1.015625q-0.828125 1.0 -0.828125 3.15625z" fill-rule="nonzero"></path><path fill="#ffffff" d="m533.19055 558.5379l0 0c0 -4.487915 3.6381836 -8.12616 8.12616 -8.12616l79.6532 0c2.1552124 0 4.222107 0.8562012 5.7460938 2.380127c1.5239258 1.5239258 2.380066 3.5908813 2.380066 5.7460327l0 32.5036c0 4.487976 -3.6381836 8.12616 -8.12616 8.12616l-79.6532 0c-4.487976 0 -8.12616 -3.6381836 -8.12616 -8.12616z" fill-rule="evenodd"></path><path stroke="#e69138" stroke-width="1.0" stroke-linejoin="round" stroke-linecap="butt" d="m533.19055 558.5379l0 0c0 -4.487915 3.6381836 -8.12616 8.12616 -8.12616l79.6532 0c2.1552124 0 4.222107 0.8562012 5.7460938 2.380127c1.5239258 1.5239258 2.380066 3.5908813 2.380066 5.7460327l0 32.5036c0 4.487976 -3.6381836 8.12616 -8.12616 8.12616l-79.6532 0c-4.487976 0 -8.12616 -3.6381836 -8.12616 -8.12616z" fill-rule="evenodd"></path><path fill="#ffffff" d="m205.82788 558.5379l0 0c0 -4.487915 3.6381989 -8.12616 8.126144 -8.12616l79.65321 0c2.1552124 0 4.222107 0.8562012 5.746063 2.380127c1.5239563 1.5239258 2.3800964 3.5908813 2.3800964 5.7460327l0 32.5036c0 4.487976 -3.638214 8.12616 -8.12616 8.12616l-79.65321 0c-4.4879456 0 -8.126144 -3.6381836 -8.126144 -8.12616z" fill-rule="evenodd"></path><path stroke="#e69138" stroke-width="1.0" stroke-linejoin="round" stroke-linecap="butt" d="m205.82788 558.5379l0 0c0 -4.487915 3.6381989 -8.12616 8.126144 -8.12616l79.65321 0c2.1552124 0 4.222107 0.8562012 5.746063 2.380127c1.5239563 1.5239258 2.3800964 3.5908813 2.3800964 5.7460327l0 32.5036c0 4.487976 -3.638214 8.12616 -8.12616 8.12616l-79.65321 0c-4.4879456 0 -8.126144 -3.6381836 -8.126144 -8.12616z" fill-rule="evenodd"></path></g></svg>

